<svg width="54" height="240" viewBox="0 0 54 240" fill="none" xmlns="http://www.w3.org/2000/svg">
  <g opacity=".22" stroke="#00937E" stroke-width="3">
    <path d="M27 0L54 27L27 54L0 27L27 0Z"/>
    <path d="M27 18L36 27L27 36L18 27L27 18Z"/>
    <path d="M27 60L54 87L27 114L0 87L27 60Z"/>
    <path d="M27 78L36 87L27 96L18 87L27 78Z"/>
    <path d="M27 120L54 147L27 174L0 147L27 120Z"/>
    <path d="M27 138L36 147L27 156L18 147L27 138Z"/>
    <path d="M27 180L54 207L27 234L0 207L27 180Z"/>
    <path d="M27 198L36 207L27 216L18 207L27 198Z"/>
  </g>
</svg>
