<svg width="190" height="170" viewBox="0 0 190 170" fill="none" xmlns="http://www.w3.org/2000/svg">
  <path d="M78 158C72 100 88 54 128 18C138 76 120 122 78 158Z" fill="#00937E"/>
  <path d="M48 158C18 112 14 72 38 36C66 80 68 120 48 158Z" fill="#A6DD08"/>
  <path d="M112 158C124 112 150 80 184 62C180 112 154 144 112 158Z" fill="#46A8EF"/>
  <path d="M82 158C82 106 96 62 126 20M52 158C44 112 40 76 38 36M116 158C138 122 160 90 184 62" stroke="#FCE600" stroke-width="3" stroke-linecap="round"/>
</svg>
